<svg xmlns="http://www.w3.org/2000/svg" width="190" height="60" viewBox="0 0 190 60" shape-rendering="crispEdges"><defs><mask id="m"><rect x="0" y="0" width="190" height="60" fill="white"/><rect x="4" y="37" width="182" height="23" fill="black"/></mask></defs><g mask="url(#m)"><rect x="0" y="0" width="190" height="60" fill="#211c17"/><rect x="1" y="1" width="188" height="58" fill="#503925"/><rect x="2" y="2" width="7" height="1" fill="#352a20"/><rect x="15" y="2" width="7" height="1" fill="#62472d"/><rect x="28" y="2" width="7" height="1" fill="#352a20"/><rect x="41" y="2" width="7" height="1" fill="#62472d"/><rect x="54" y="2" width="7" height="1" fill="#352a20"/><rect x="67" y="2" width="7" height="1" fill="#62472d"/><rect x="80" y="2" width="7" height="1" fill="#352a20"/><rect x="93" y="2" width="7" height="1" fill="#62472d"/><rect x="106" y="2" width="7" height="1" fill="#352a20"/><rect x="119" y="2" width="7" height="1" fill="#62472d"/><rect x="132" y="2" width="7" height="1" fill="#352a20"/><rect x="145" y="2" width="7" height="1" fill="#62472d"/><rect x="158" y="2" width="7" height="1" fill="#352a20"/><rect x="171" y="2" width="7" height="1" fill="#62472d"/><rect x="184" y="2" width="7" height="1" fill="#352a20"/><rect x="2" y="5" width="10" height="1" fill="#62472d"/><rect x="15" y="5" width="10" height="1" fill="#352a20"/><rect x="28" y="5" width="10" height="1" fill="#62472d"/><rect x="41" y="5" width="10" height="1" fill="#352a20"/><rect x="54" y="5" width="10" height="1" fill="#62472d"/><rect x="67" y="5" width="10" height="1" fill="#352a20"/><rect x="80" y="5" width="10" height="1" fill="#62472d"/><rect x="93" y="5" width="10" height="1" fill="#352a20"/><rect x="106" y="5" width="10" height="1" fill="#62472d"/><rect x="119" y="5" width="10" height="1" fill="#352a20"/><rect x="132" y="5" width="10" height="1" fill="#62472d"/><rect x="145" y="5" width="10" height="1" fill="#352a20"/><rect x="158" y="5" width="10" height="1" fill="#62472d"/><rect x="171" y="5" width="10" height="1" fill="#352a20"/><rect x="184" y="5" width="10" height="1" fill="#62472d"/><rect x="2" y="8" width="6" height="1" fill="#352a20"/><rect x="15" y="8" width="6" height="1" fill="#62472d"/><rect x="28" y="8" width="6" height="1" fill="#352a20"/><rect x="41" y="8" width="6" height="1" fill="#62472d"/><rect x="54" y="8" width="6" height="1" fill="#352a20"/><rect x="67" y="8" width="6" height="1" fill="#62472d"/><rect x="80" y="8" width="6" height="1" fill="#352a20"/><rect x="93" y="8" width="6" height="1" fill="#62472d"/><rect x="106" y="8" width="6" height="1" fill="#352a20"/><rect x="119" y="8" width="6" height="1" fill="#62472d"/><rect x="132" y="8" width="6" height="1" fill="#352a20"/><rect x="145" y="8" width="6" height="1" fill="#62472d"/><rect x="158" y="8" width="6" height="1" fill="#352a20"/><rect x="171" y="8" width="6" height="1" fill="#62472d"/><rect x="184" y="8" width="6" height="1" fill="#352a20"/><rect x="2" y="11" width="9" height="1" fill="#62472d"/><rect x="15" y="11" width="9" height="1" fill="#352a20"/><rect x="28" y="11" width="9" height="1" fill="#62472d"/><rect x="41" y="11" width="9" height="1" fill="#352a20"/><rect x="54" y="11" width="9" height="1" fill="#62472d"/><rect x="67" y="11" width="9" height="1" fill="#352a20"/><rect x="80" y="11" width="9" height="1" fill="#62472d"/><rect x="93" y="11" width="9" height="1" fill="#352a20"/><rect x="106" y="11" width="9" height="1" fill="#62472d"/><rect x="119" y="11" width="9" height="1" fill="#352a20"/><rect x="132" y="11" width="9" height="1" fill="#62472d"/><rect x="145" y="11" width="9" height="1" fill="#352a20"/><rect x="158" y="11" width="9" height="1" fill="#62472d"/><rect x="171" y="11" width="9" height="1" fill="#352a20"/><rect x="184" y="11" width="9" height="1" fill="#62472d"/><rect x="2" y="14" width="5" height="1" fill="#352a20"/><rect x="15" y="14" width="5" height="1" fill="#62472d"/><rect x="28" y="14" width="5" height="1" fill="#352a20"/><rect x="41" y="14" width="5" height="1" fill="#62472d"/><rect x="54" y="14" width="5" height="1" fill="#352a20"/><rect x="67" y="14" width="5" height="1" fill="#62472d"/><rect x="80" y="14" width="5" height="1" fill="#352a20"/><rect x="93" y="14" width="5" height="1" fill="#62472d"/><rect x="106" y="14" width="5" height="1" fill="#352a20"/><rect x="119" y="14" width="5" height="1" fill="#62472d"/><rect x="132" y="14" width="5" height="1" fill="#352a20"/><rect x="145" y="14" width="5" height="1" fill="#62472d"/><rect x="158" y="14" width="5" height="1" fill="#352a20"/><rect x="171" y="14" width="5" height="1" fill="#62472d"/><rect x="184" y="14" width="5" height="1" fill="#352a20"/><rect x="2" y="17" width="8" height="1" fill="#62472d"/><rect x="15" y="17" width="8" height="1" fill="#352a20"/><rect x="28" y="17" width="8" height="1" fill="#62472d"/><rect x="41" y="17" width="8" height="1" fill="#352a20"/><rect x="54" y="17" width="8" height="1" fill="#62472d"/><rect x="67" y="17" width="8" height="1" fill="#352a20"/><rect x="80" y="17" width="8" height="1" fill="#62472d"/><rect x="93" y="17" width="8" height="1" fill="#352a20"/><rect x="106" y="17" width="8" height="1" fill="#62472d"/><rect x="119" y="17" width="8" height="1" fill="#352a20"/><rect x="132" y="17" width="8" height="1" fill="#62472d"/><rect x="145" y="17" width="8" height="1" fill="#352a20"/><rect x="158" y="17" width="8" height="1" fill="#62472d"/><rect x="171" y="17" width="8" height="1" fill="#352a20"/><rect x="184" y="17" width="8" height="1" fill="#62472d"/><rect x="2" y="20" width="11" height="1" fill="#352a20"/><rect x="15" y="20" width="11" height="1" fill="#62472d"/><rect x="28" y="20" width="11" height="1" fill="#352a20"/><rect x="41" y="20" width="11" height="1" fill="#62472d"/><rect x="54" y="20" width="11" height="1" fill="#352a20"/><rect x="67" y="20" width="11" height="1" fill="#62472d"/><rect x="80" y="20" width="11" height="1" fill="#352a20"/><rect x="93" y="20" width="11" height="1" fill="#62472d"/><rect x="106" y="20" width="11" height="1" fill="#352a20"/><rect x="119" y="20" width="11" height="1" fill="#62472d"/><rect x="132" y="20" width="11" height="1" fill="#352a20"/><rect x="145" y="20" width="11" height="1" fill="#62472d"/><rect x="158" y="20" width="11" height="1" fill="#352a20"/><rect x="171" y="20" width="11" height="1" fill="#62472d"/><rect x="184" y="20" width="11" height="1" fill="#352a20"/><rect x="2" y="23" width="7" height="1" fill="#62472d"/><rect x="15" y="23" width="7" height="1" fill="#352a20"/><rect x="28" y="23" width="7" height="1" fill="#62472d"/><rect x="41" y="23" width="7" height="1" fill="#352a20"/><rect x="54" y="23" width="7" height="1" fill="#62472d"/><rect x="67" y="23" width="7" height="1" fill="#352a20"/><rect x="80" y="23" width="7" height="1" fill="#62472d"/><rect x="93" y="23" width="7" height="1" fill="#352a20"/><rect x="106" y="23" width="7" height="1" fill="#62472d"/><rect x="119" y="23" width="7" height="1" fill="#352a20"/><rect x="132" y="23" width="7" height="1" fill="#62472d"/><rect x="145" y="23" width="7" height="1" fill="#352a20"/><rect x="158" y="23" width="7" height="1" fill="#62472d"/><rect x="171" y="23" width="7" height="1" fill="#352a20"/><rect x="184" y="23" width="7" height="1" fill="#62472d"/><rect x="2" y="26" width="10" height="1" fill="#352a20"/><rect x="15" y="26" width="10" height="1" fill="#62472d"/><rect x="28" y="26" width="10" height="1" fill="#352a20"/><rect x="41" y="26" width="10" height="1" fill="#62472d"/><rect x="54" y="26" width="10" height="1" fill="#352a20"/><rect x="67" y="26" width="10" height="1" fill="#62472d"/><rect x="80" y="26" width="10" height="1" fill="#352a20"/><rect x="93" y="26" width="10" height="1" fill="#62472d"/><rect x="106" y="26" width="10" height="1" fill="#352a20"/><rect x="119" y="26" width="10" height="1" fill="#62472d"/><rect x="132" y="26" width="10" height="1" fill="#352a20"/><rect x="145" y="26" width="10" height="1" fill="#62472d"/><rect x="158" y="26" width="10" height="1" fill="#352a20"/><rect x="171" y="26" width="10" height="1" fill="#62472d"/><rect x="184" y="26" width="10" height="1" fill="#352a20"/><rect x="2" y="29" width="6" height="1" fill="#62472d"/><rect x="15" y="29" width="6" height="1" fill="#352a20"/><rect x="28" y="29" width="6" height="1" fill="#62472d"/><rect x="41" y="29" width="6" height="1" fill="#352a20"/><rect x="54" y="29" width="6" height="1" fill="#62472d"/><rect x="67" y="29" width="6" height="1" fill="#352a20"/><rect x="80" y="29" width="6" height="1" fill="#62472d"/><rect x="93" y="29" width="6" height="1" fill="#352a20"/><rect x="106" y="29" width="6" height="1" fill="#62472d"/><rect x="119" y="29" width="6" height="1" fill="#352a20"/><rect x="132" y="29" width="6" height="1" fill="#62472d"/><rect x="145" y="29" width="6" height="1" fill="#352a20"/><rect x="158" y="29" width="6" height="1" fill="#62472d"/><rect x="171" y="29" width="6" height="1" fill="#352a20"/><rect x="184" y="29" width="6" height="1" fill="#62472d"/><rect x="2" y="32" width="9" height="1" fill="#352a20"/><rect x="15" y="32" width="9" height="1" fill="#62472d"/><rect x="28" y="32" width="9" height="1" fill="#352a20"/><rect x="41" y="32" width="9" height="1" fill="#62472d"/><rect x="54" y="32" width="9" height="1" fill="#352a20"/><rect x="67" y="32" width="9" height="1" fill="#62472d"/><rect x="80" y="32" width="9" height="1" fill="#352a20"/><rect x="93" y="32" width="9" height="1" fill="#62472d"/><rect x="106" y="32" width="9" height="1" fill="#352a20"/><rect x="119" y="32" width="9" height="1" fill="#62472d"/><rect x="132" y="32" width="9" height="1" fill="#352a20"/><rect x="145" y="32" width="9" height="1" fill="#62472d"/><rect x="158" y="32" width="9" height="1" fill="#352a20"/><rect x="171" y="32" width="9" height="1" fill="#62472d"/><rect x="184" y="32" width="9" height="1" fill="#352a20"/><rect x="2" y="35" width="5" height="1" fill="#62472d"/><rect x="15" y="35" width="5" height="1" fill="#352a20"/><rect x="28" y="35" width="5" height="1" fill="#62472d"/><rect x="41" y="35" width="5" height="1" fill="#352a20"/><rect x="54" y="35" width="5" height="1" fill="#62472d"/><rect x="67" y="35" width="5" height="1" fill="#352a20"/><rect x="80" y="35" width="5" height="1" fill="#62472d"/><rect x="93" y="35" width="5" height="1" fill="#352a20"/><rect x="106" y="35" width="5" height="1" fill="#62472d"/><rect x="119" y="35" width="5" height="1" fill="#352a20"/><rect x="132" y="35" width="5" height="1" fill="#62472d"/><rect x="145" y="35" width="5" height="1" fill="#352a20"/><rect x="158" y="35" width="5" height="1" fill="#62472d"/><rect x="171" y="35" width="5" height="1" fill="#352a20"/><rect x="184" y="35" width="5" height="1" fill="#62472d"/><rect x="2" y="38" width="8" height="1" fill="#352a20"/><rect x="15" y="38" width="8" height="1" fill="#62472d"/><rect x="28" y="38" width="8" height="1" fill="#352a20"/><rect x="41" y="38" width="8" height="1" fill="#62472d"/><rect x="54" y="38" width="8" height="1" fill="#352a20"/><rect x="67" y="38" width="8" height="1" fill="#62472d"/><rect x="80" y="38" width="8" height="1" fill="#352a20"/><rect x="93" y="38" width="8" height="1" fill="#62472d"/><rect x="106" y="38" width="8" height="1" fill="#352a20"/><rect x="119" y="38" width="8" height="1" fill="#62472d"/><rect x="132" y="38" width="8" height="1" fill="#352a20"/><rect x="145" y="38" width="8" height="1" fill="#62472d"/><rect x="158" y="38" width="8" height="1" fill="#352a20"/><rect x="171" y="38" width="8" height="1" fill="#62472d"/><rect x="184" y="38" width="8" height="1" fill="#352a20"/><rect x="2" y="41" width="11" height="1" fill="#62472d"/><rect x="15" y="41" width="11" height="1" fill="#352a20"/><rect x="28" y="41" width="11" height="1" fill="#62472d"/><rect x="41" y="41" width="11" height="1" fill="#352a20"/><rect x="54" y="41" width="11" height="1" fill="#62472d"/><rect x="67" y="41" width="11" height="1" fill="#352a20"/><rect x="80" y="41" width="11" height="1" fill="#62472d"/><rect x="93" y="41" width="11" height="1" fill="#352a20"/><rect x="106" y="41" width="11" height="1" fill="#62472d"/><rect x="119" y="41" width="11" height="1" fill="#352a20"/><rect x="132" y="41" width="11" height="1" fill="#62472d"/><rect x="145" y="41" width="11" height="1" fill="#352a20"/><rect x="158" y="41" width="11" height="1" fill="#62472d"/><rect x="171" y="41" width="11" height="1" fill="#352a20"/><rect x="184" y="41" width="11" height="1" fill="#62472d"/><rect x="2" y="44" width="7" height="1" fill="#352a20"/><rect x="15" y="44" width="7" height="1" fill="#62472d"/><rect x="28" y="44" width="7" height="1" fill="#352a20"/><rect x="41" y="44" width="7" height="1" fill="#62472d"/><rect x="54" y="44" width="7" height="1" fill="#352a20"/><rect x="67" y="44" width="7" height="1" fill="#62472d"/><rect x="80" y="44" width="7" height="1" fill="#352a20"/><rect x="93" y="44" width="7" height="1" fill="#62472d"/><rect x="106" y="44" width="7" height="1" fill="#352a20"/><rect x="119" y="44" width="7" height="1" fill="#62472d"/><rect x="132" y="44" width="7" height="1" fill="#352a20"/><rect x="145" y="44" width="7" height="1" fill="#62472d"/><rect x="158" y="44" width="7" height="1" fill="#352a20"/><rect x="171" y="44" width="7" height="1" fill="#62472d"/><rect x="184" y="44" width="7" height="1" fill="#352a20"/><rect x="2" y="47" width="10" height="1" fill="#62472d"/><rect x="15" y="47" width="10" height="1" fill="#352a20"/><rect x="28" y="47" width="10" height="1" fill="#62472d"/><rect x="41" y="47" width="10" height="1" fill="#352a20"/><rect x="54" y="47" width="10" height="1" fill="#62472d"/><rect x="67" y="47" width="10" height="1" fill="#352a20"/><rect x="80" y="47" width="10" height="1" fill="#62472d"/><rect x="93" y="47" width="10" height="1" fill="#352a20"/><rect x="106" y="47" width="10" height="1" fill="#62472d"/><rect x="119" y="47" width="10" height="1" fill="#352a20"/><rect x="132" y="47" width="10" height="1" fill="#62472d"/><rect x="145" y="47" width="10" height="1" fill="#352a20"/><rect x="158" y="47" width="10" height="1" fill="#62472d"/><rect x="171" y="47" width="10" height="1" fill="#352a20"/><rect x="184" y="47" width="10" height="1" fill="#62472d"/><rect x="2" y="50" width="6" height="1" fill="#352a20"/><rect x="15" y="50" width="6" height="1" fill="#62472d"/><rect x="28" y="50" width="6" height="1" fill="#352a20"/><rect x="41" y="50" width="6" height="1" fill="#62472d"/><rect x="54" y="50" width="6" height="1" fill="#352a20"/><rect x="67" y="50" width="6" height="1" fill="#62472d"/><rect x="80" y="50" width="6" height="1" fill="#352a20"/><rect x="93" y="50" width="6" height="1" fill="#62472d"/><rect x="106" y="50" width="6" height="1" fill="#352a20"/><rect x="119" y="50" width="6" height="1" fill="#62472d"/><rect x="132" y="50" width="6" height="1" fill="#352a20"/><rect x="145" y="50" width="6" height="1" fill="#62472d"/><rect x="158" y="50" width="6" height="1" fill="#352a20"/><rect x="171" y="50" width="6" height="1" fill="#62472d"/><rect x="184" y="50" width="6" height="1" fill="#352a20"/><rect x="2" y="53" width="9" height="1" fill="#62472d"/><rect x="15" y="53" width="9" height="1" fill="#352a20"/><rect x="28" y="53" width="9" height="1" fill="#62472d"/><rect x="41" y="53" width="9" height="1" fill="#352a20"/><rect x="54" y="53" width="9" height="1" fill="#62472d"/><rect x="67" y="53" width="9" height="1" fill="#352a20"/><rect x="80" y="53" width="9" height="1" fill="#62472d"/><rect x="93" y="53" width="9" height="1" fill="#352a20"/><rect x="106" y="53" width="9" height="1" fill="#62472d"/><rect x="119" y="53" width="9" height="1" fill="#352a20"/><rect x="132" y="53" width="9" height="1" fill="#62472d"/><rect x="145" y="53" width="9" height="1" fill="#352a20"/><rect x="158" y="53" width="9" height="1" fill="#62472d"/><rect x="171" y="53" width="9" height="1" fill="#352a20"/><rect x="184" y="53" width="9" height="1" fill="#62472d"/><rect x="2" y="56" width="5" height="1" fill="#352a20"/><rect x="15" y="56" width="5" height="1" fill="#62472d"/><rect x="28" y="56" width="5" height="1" fill="#352a20"/><rect x="41" y="56" width="5" height="1" fill="#62472d"/><rect x="54" y="56" width="5" height="1" fill="#352a20"/><rect x="67" y="56" width="5" height="1" fill="#62472d"/><rect x="80" y="56" width="5" height="1" fill="#352a20"/><rect x="93" y="56" width="5" height="1" fill="#62472d"/><rect x="106" y="56" width="5" height="1" fill="#352a20"/><rect x="119" y="56" width="5" height="1" fill="#62472d"/><rect x="132" y="56" width="5" height="1" fill="#352a20"/><rect x="145" y="56" width="5" height="1" fill="#62472d"/><rect x="158" y="56" width="5" height="1" fill="#352a20"/><rect x="171" y="56" width="5" height="1" fill="#62472d"/><rect x="184" y="56" width="5" height="1" fill="#352a20"/><rect x="2" y="59" width="8" height="1" fill="#62472d"/><rect x="15" y="59" width="8" height="1" fill="#352a20"/><rect x="28" y="59" width="8" height="1" fill="#62472d"/><rect x="41" y="59" width="8" height="1" fill="#352a20"/><rect x="54" y="59" width="8" height="1" fill="#62472d"/><rect x="67" y="59" width="8" height="1" fill="#352a20"/><rect x="80" y="59" width="8" height="1" fill="#62472d"/><rect x="93" y="59" width="8" height="1" fill="#352a20"/><rect x="106" y="59" width="8" height="1" fill="#62472d"/><rect x="119" y="59" width="8" height="1" fill="#352a20"/><rect x="132" y="59" width="8" height="1" fill="#62472d"/><rect x="145" y="59" width="8" height="1" fill="#352a20"/><rect x="158" y="59" width="8" height="1" fill="#62472d"/><rect x="171" y="59" width="8" height="1" fill="#352a20"/><rect x="184" y="59" width="8" height="1" fill="#62472d"/><rect x="0" y="0" width="190" height="1" fill="#b08e5d"/><rect x="0" y="0" width="1" height="60" fill="#957244"/><rect x="189" y="0" width="1" height="60" fill="#171712"/><rect x="4" y="3" width="89" height="26" fill="#181611"/><rect x="4" y="3" width="89" height="1" fill="#9d8154"/><rect x="4" y="3" width="1" height="26" fill="#79613e"/><rect x="5" y="4" width="87" height="24" fill="#4b3725"/><rect x="6" y="5" width="85" height="22" fill="#121b20"/><rect x="6" y="5" width="85" height="1" fill="#263237"/><rect x="5" y="27" width="87" height="1" fill="#2d241c"/><rect x="97" y="3" width="89" height="26" fill="#181611"/><rect x="97" y="3" width="89" height="1" fill="#9d8154"/><rect x="97" y="3" width="1" height="26" fill="#79613e"/><rect x="98" y="4" width="87" height="24" fill="#4b3725"/><rect x="99" y="5" width="85" height="22" fill="#121b20"/><rect x="99" y="5" width="85" height="1" fill="#263237"/><rect x="98" y="27" width="87" height="1" fill="#2d241c"/><g transform="translate(8 9)"><polygon points="0,2 2,0 4,0 6,2 8,0 10,0 12,2 12,6 6,12 0,6" fill="#681f28"/><polygon points="1,2 2,1 4,1 6,3 8,1 10,1 11,2 11,5 6,10 1,5" fill="#ec364c"/><rect x="2" y="2" width="2" height="3" fill="#ff8c95"/><rect x="8" y="2" width="2" height="1" fill="#ff6575"/></g><g transform="translate(101 8)"><polygon points="5,0 10,5 10,11 5,15 0,11 0,5" fill="#074854"/><polygon points="5,1 9,5 9,10 5,13 1,10 1,5" fill="#12bed7"/><polygon points="5,1 5,13 2,9 2,5" fill="#78eeef"/><polygon points="6,3 8,5 8,9 6,11" fill="#0086b9"/><rect x="4" y="3" width="1" height="7" fill="#c0ffff"/></g><rect x="24" y="20" width="65" height="5" fill="#080c0f"/><rect x="25" y="21" width="63" height="3" fill="#471c26"/><rect x="116" y="20" width="65" height="5" fill="#080c0f"/><rect x="117" y="21" width="63" height="3" fill="#073e4b"/><rect x="4" y="30" width="182" height="6" fill="#17191a"/><rect x="4" y="30" width="182" height="1" fill="#806944"/><rect x="5" y="32" width="180" height="2" fill="#183123"/><rect x="5" y="35" width="180" height="1" fill="#392d21"/><rect x="4" y="37" width="182" height="23" fill="black"/><rect x="1" y="2" width="2" height="2" fill="#be9b62"/><rect x="1" y="2" width="1" height="1" fill="#ffebac"/><rect x="1" y="56" width="2" height="2" fill="#be9b62"/><rect x="1" y="56" width="1" height="1" fill="#ffebac"/><rect x="187" y="2" width="2" height="2" fill="#be9b62"/><rect x="187" y="2" width="1" height="1" fill="#ffebac"/><rect x="187" y="56" width="2" height="2" fill="#be9b62"/><rect x="187" y="56" width="1" height="1" fill="#ffebac"/></g></svg>