<svg xmlns="http://www.w3.org/2000/svg" width="190" height="60" viewBox="0 0 190 60" shape-rendering="crispEdges"><rect x="0" y="0" width="190" height="60" fill="#211c17"/><rect x="1" y="1" width="188" height="58" fill="#503925"/><rect x="2" y="2" width="7" height="1" fill="#352a20"/><rect x="15" y="2" width="7" height="1" fill="#62472d"/><rect x="28" y="2" width="7" height="1" fill="#352a20"/><rect x="41" y="2" width="7" height="1" fill="#62472d"/><rect x="54" y="2" width="7" height="1" fill="#352a20"/><rect x="67" y="2" width="7" height="1" fill="#62472d"/><rect x="80" y="2" width="7" height="1" fill="#352a20"/><rect x="93" y="2" width="7" height="1" fill="#62472d"/><rect x="106" y="2" width="7" height="1" fill="#352a20"/><rect x="119" y="2" width="7" height="1" fill="#62472d"/><rect x="132" y="2" width="7" height="1" fill="#352a20"/><rect x="145" y="2" width="7" height="1" fill="#62472d"/><rect x="158" y="2" width="7" height="1" fill="#352a20"/><rect x="171" y="2" width="7" height="1" fill="#62472d"/><rect x="184" y="2" width="7" height="1" fill="#352a20"/><rect x="2" y="5" width="10" height="1" fill="#62472d"/><rect x="15" y="5" width="10" height="1" fill="#352a20"/><rect x="28" y="5" width="10" height="1" fill="#62472d"/><rect x="41" y="5" width="10" height="1" fill="#352a20"/><rect x="54" y="5" width="10" height="1" fill="#62472d"/><rect x="67" y="5" width="10" height="1" fill="#352a20"/><rect x="80" y="5" width="10" height="1" fill="#62472d"/><rect x="93" y="5" width="10" height="1" fill="#352a20"/><rect x="106" y="5" width="10" height="1" fill="#62472d"/><rect x="119" y="5" width="10" height="1" fill="#352a20"/><rect x="132" y="5" width="10" height="1" fill="#62472d"/><rect x="145" y="5" width="10" height="1" fill="#352a20"/><rect x="158" y="5" width="10" height="1" fill="#62472d"/><rect x="171" y="5" width="10" height="1" fill="#352a20"/><rect x="184" y="5" width="10" height="1" fill="#62472d"/><rect x="2" y="8" width="6" height="1" fill="#352a20"/><rect x="15" y="8" width="6" height="1" fill="#62472d"/><rect x="28" y="8" width="6" height="1" fill="#352a20"/><rect x="41" y="8" width="6" height="1" fill="#62472d"/><rect x="54" y="8" width="6" height="1" fill="#352a20"/><rect x="67" y="8" width="6" height="1" fill="#62472d"/><rect x="80" y="8" width="6" height="1" fill="#352a20"/><rect x="93" y="8" width="6" height="1" fill="#62472d"/><rect x="106" y="8" width="6" height="1" fill="#352a20"/><rect x="119" y="8" width="6" height="1" fill="#62472d"/><rect x="132" y="8" width="6" height="1" fill="#352a20"/><rect x="145" y="8" width="6" height="1" fill="#62472d"/><rect x="158" y="8" width="6" height="1" fill="#352a20"/><rect x="171" y="8" width="6" height="1" fill="#62472d"/><rect x="184" y="8" width="6" height="1" fill="#352a20"/><rect x="2" y="11" width="9" height="1" fill="#62472d"/><rect x="15" y="11" width="9" height="1" fill="#352a20"/><rect x="28" y="11" width="9" height="1" fill="#62472d"/><rect x="41" y="11" width="9" height="1" fill="#352a20"/><rect x="54" y="11" width="9" height="1" fill="#62472d"/><rect x="67" y="11" width="9" height="1" fill="#352a20"/><rect x="80" y="11" width="9" height="1" fill="#62472d"/><rect x="93" y="11" width="9" height="1" fill="#352a20"/><rect x="106" y="11" width="9" height="1" fill="#62472d"/><rect x="119" y="11" width="9" height="1" fill="#352a20"/><rect x="132" y="11" width="9" height="1" fill="#62472d"/><rect x="145" y="11" width="9" height="1" fill="#352a20"/><rect x="158" y="11" width="9" height="1" fill="#62472d"/><rect x="171" y="11" width="9" height="1" fill="#352a20"/><rect x="184" y="11" width="9" height="1" fill="#62472d"/><rect x="2" y="14" width="5" height="1" fill="#352a20"/><rect x="15" y="14" width="5" height="1" fill="#62472d"/><rect x="28" y="14" width="5" height="1" fill="#352a20"/><rect x="41" y="14" width="5" height="1" fill="#62472d"/><rect x="54" y="14" width="5" height="1" fill="#352a20"/><rect x="67" y="14" width="5" height="1" fill="#62472d"/><rect x="80" y="14" width="5" height="1" fill="#352a20"/><rect x="93" y="14" width="5" height="1" fill="#62472d"/><rect x="106" y="14" width="5" height="1" fill="#352a20"/><rect x="119" y="14" width="5" height="1" fill="#62472d"/><rect x="132" y="14" width="5" height="1" fill="#352a20"/><rect x="145" y="14" width="5" height="1" fill="#62472d"/><rect x="158" y="14" width="5" height="1" fill="#352a20"/><rect x="171" y="14" width="5" height="1" fill="#62472d"/><rect x="184" y="14" width="5" height="1" fill="#352a20"/><rect x="2" y="17" width="8" height="1" fill="#62472d"/><rect x="15" y="17" width="8" height="1" fill="#352a20"/><rect x="28" y="17" width="8" height="1" fill="#62472d"/><rect x="41" y="17" width="8" height="1" fill="#352a20"/><rect x="54" y="17" width="8" height="1" fill="#62472d"/><rect x="67" y="17" width="8" height="1" fill="#352a20"/><rect x="80" y="17" width="8" height="1" fill="#62472d"/><rect x="93" y="17" width="8" height="1" fill="#352a20"/><rect x="106" y="17" width="8" height="1" fill="#62472d"/><rect x="119" y="17" width="8" height="1" fill="#352a20"/><rect x="132" y="17" width="8" height="1" fill="#62472d"/><rect x="145" y="17" width="8" height="1" fill="#352a20"/><rect x="158" y="17" width="8" height="1" fill="#62472d"/><rect x="171" y="17" width="8" height="1" fill="#352a20"/><rect x="184" y="17" width="8" height="1" fill="#62472d"/><rect x="2" y="20" width="11" height="1" fill="#352a20"/><rect x="15" y="20" width="11" height="1" fill="#62472d"/><rect x="28" y="20" width="11" height="1" fill="#352a20"/><rect x="41" y="20" width="11" height="1" fill="#62472d"/><rect x="54" y="20" width="11" height="1" fill="#352a20"/><rect x="67" y="20" width="11" height="1" fill="#62472d"/><rect x="80" y="20" width="11" height="1" fill="#352a20"/><rect x="93" y="20" width="11" height="1" fill="#62472d"/><rect x="106" y="20" width="11" height="1" fill="#352a20"/><rect x="119" y="20" width="11" height="1" fill="#62472d"/><rect x="132" y="20" width="11" height="1" fill="#352a20"/><rect x="145" y="20" width="11" height="1" fill="#62472d"/><rect x="158" y="20" width="11" height="1" fill="#352a20"/><rect x="171" y="20" width="11" height="1" fill="#62472d"/><rect x="184" y="20" width="11" height="1" fill="#352a20"/><rect x="2" y="23" width="7" height="1" fill="#62472d"/><rect x="15" y="23" width="7" height="1" fill="#352a20"/><rect x="28" y="23" width="7" height="1" fill="#62472d"/><rect x="41" y="23" width="7" height="1" fill="#352a20"/><rect x="54" y="23" width="7" height="1" fill="#62472d"/><rect x="67" y="23" width="7" height="1" fill="#352a20"/><rect x="80" y="23" width="7" height="1" fill="#62472d"/><rect x="93" y="23" width="7" height="1" fill="#352a20"/><rect x="106" y="23" width="7" height="1" fill="#62472d"/><rect x="119" y="23" width="7" height="1" fill="#352a20"/><rect x="132" y="23" width="7" height="1" fill="#62472d"/><rect x="145" y="23" width="7" height="1" fill="#352a20"/><rect x="158" y="23" width="7" height="1" fill="#62472d"/><rect x="171" y="23" width="7" height="1" fill="#352a20"/><rect x="184" y="23" width="7" height="1" fill="#62472d"/><rect x="2" y="26" width="10" height="1" fill="#352a20"/><rect x="15" y="26" width="10" height="1" fill="#62472d"/><rect x="28" y="26" width="10" height="1" fill="#352a20"/><rect x="41" y="26" width="10" height="1" fill="#62472d"/><rect x="54" y="26" width="10" height="1" fill="#352a20"/><rect x="67" y="26" width="10" height="1" fill="#62472d"/><rect x="80" y="26" width="10" height="1" fill="#352a20"/><rect x="93" y="26" width="10" height="1" fill="#62472d"/><rect x="106" y="26" width="10" height="1" fill="#352a20"/><rect x="119" y="26" width="10" height="1" fill="#62472d"/><rect x="132" y="26" width="10" height="1" fill="#352a20"/><rect x="145" y="26" width="10" height="1" fill="#62472d"/><rect x="158" y="26" width="10" height="1" fill="#352a20"/><rect x="171" y="26" width="10" height="1" fill="#62472d"/><rect x="184" y="26" width="10" height="1" fill="#352a20"/><rect x="2" y="29" width="6" height="1" fill="#62472d"/><rect x="15" y="29" width="6" height="1" fill="#352a20"/><rect x="28" y="29" width="6" height="1" fill="#62472d"/><rect x="41" y="29" width="6" height="1" fill="#352a20"/><rect x="54" y="29" width="6" height="1" fill="#62472d"/><rect x="67" y="29" width="6" height="1" fill="#352a20"/><rect x="80" y="29" width="6" height="1" fill="#62472d"/><rect x="93" y="29" width="6" height="1" fill="#352a20"/><rect x="106" y="29" width="6" height="1" fill="#62472d"/><rect x="119" y="29" width="6" height="1" fill="#352a20"/><rect x="132" y="29" width="6" height="1" fill="#62472d"/><rect x="145" y="29" width="6" height="1" fill="#352a20"/><rect x="158" y="29" width="6" height="1" fill="#62472d"/><rect x="171" y="29" width="6" height="1" fill="#352a20"/><rect x="184" y="29" width="6" height="1" fill="#62472d"/><rect x="2" y="32" width="9" height="1" fill="#352a20"/><rect x="15" y="32" width="9" height="1" fill="#62472d"/><rect x="28" y="32" width="9" height="1" fill="#352a20"/><rect x="41" y="32" width="9" height="1" fill="#62472d"/><rect x="54" y="32" width="9" height="1" fill="#352a20"/><rect x="67" y="32" width="9" height="1" fill="#62472d"/><rect x="80" y="32" width="9" height="1" fill="#352a20"/><rect x="93" y="32" width="9" height="1" fill="#62472d"/><rect x="106" y="32" width="9" height="1" fill="#352a20"/><rect x="119" y="32" width="9" height="1" fill="#62472d"/><rect x="132" y="32" width="9" height="1" fill="#352a20"/><rect x="145" y="32" width="9" height="1" fill="#62472d"/><rect x="158" y="32" width="9" height="1" fill="#352a20"/><rect x="171" y="32" width="9" height="1" fill="#62472d"/><rect x="184" y="32" width="9" height="1" fill="#352a20"/><rect x="2" y="35" width="5" height="1" fill="#62472d"/><rect x="15" y="35" width="5" height="1" fill="#352a20"/><rect x="28" y="35" width="5" height="1" fill="#62472d"/><rect x="41" y="35" width="5" height="1" fill="#352a20"/><rect x="54" y="35" width="5" height="1" fill="#62472d"/><rect x="67" y="35" width="5" height="1" fill="#352a20"/><rect x="80" y="35" width="5" height="1" fill="#62472d"/><rect x="93" y="35" width="5" height="1" fill="#352a20"/><rect x="106" y="35" width="5" height="1" fill="#62472d"/><rect x="119" y="35" width="5" height="1" fill="#352a20"/><rect x="132" y="35" width="5" height="1" fill="#62472d"/><rect x="145" y="35" width="5" height="1" fill="#352a20"/><rect x="158" y="35" width="5" height="1" fill="#62472d"/><rect x="171" y="35" width="5" height="1" fill="#352a20"/><rect x="184" y="35" width="5" height="1" fill="#62472d"/><rect x="2" y="38" width="8" height="1" fill="#352a20"/><rect x="15" y="38" width="8" height="1" fill="#62472d"/><rect x="28" y="38" width="8" height="1" fill="#352a20"/><rect x="41" y="38" width="8" height="1" fill="#62472d"/><rect x="54" y="38" width="8" height="1" fill="#352a20"/><rect x="67" y="38" width="8" height="1" fill="#62472d"/><rect x="80" y="38" width="8" height="1" fill="#352a20"/><rect x="93" y="38" width="8" height="1" fill="#62472d"/><rect x="106" y="38" width="8" height="1" fill="#352a20"/><rect x="119" y="38" width="8" height="1" fill="#62472d"/><rect x="132" y="38" width="8" height="1" fill="#352a20"/><rect x="145" y="38" width="8" height="1" fill="#62472d"/><rect x="158" y="38" width="8" height="1" fill="#352a20"/><rect x="171" y="38" width="8" height="1" fill="#62472d"/><rect x="184" y="38" width="8" height="1" fill="#352a20"/><rect x="2" y="41" width="11" height="1" fill="#62472d"/><rect x="15" y="41" width="11" height="1" fill="#352a20"/><rect x="28" y="41" width="11" height="1" fill="#62472d"/><rect x="41" y="41" width="11" height="1" fill="#352a20"/><rect x="54" y="41" width="11" height="1" fill="#62472d"/><rect x="67" y="41" width="11" height="1" fill="#352a20"/><rect x="80" y="41" width="11" height="1" fill="#62472d"/><rect x="93" y="41" width="11" height="1" fill="#352a20"/><rect x="106" y="41" width="11" height="1" fill="#62472d"/><rect x="119" y="41" width="11" height="1" fill="#352a20"/><rect x="132" y="41" width="11" height="1" fill="#62472d"/><rect x="145" y="41" width="11" height="1" fill="#352a20"/><rect x="158" y="41" width="11" height="1" fill="#62472d"/><rect x="171" y="41" width="11" height="1" fill="#352a20"/><rect x="184" y="41" width="11" height="1" fill="#62472d"/><rect x="2" y="44" width="7" height="1" fill="#352a20"/><rect x="15" y="44" width="7" height="1" fill="#62472d"/><rect x="28" y="44" width="7" height="1" fill="#352a20"/><rect x="41" y="44" width="7" height="1" fill="#62472d"/><rect x="54" y="44" width="7" height="1" fill="#352a20"/><rect x="67" y="44" width="7" height="1" fill="#62472d"/><rect x="80" y="44" width="7" height="1" fill="#352a20"/><rect x="93" y="44" width="7" height="1" fill="#62472d"/><rect x="106" y="44" width="7" height="1" fill="#352a20"/><rect x="119" y="44" width="7" height="1" fill="#62472d"/><rect x="132" y="44" width="7" height="1" fill="#352a20"/><rect x="145" y="44" width="7" height="1" fill="#62472d"/><rect x="158" y="44" width="7" height="1" fill="#352a20"/><rect x="171" y="44" width="7" height="1" fill="#62472d"/><rect x="184" y="44" width="7" height="1" fill="#352a20"/><rect x="2" y="47" width="10" height="1" fill="#62472d"/><rect x="15" y="47" width="10" height="1" fill="#352a20"/><rect x="28" y="47" width="10" height="1" fill="#62472d"/><rect x="41" y="47" width="10" height="1" fill="#352a20"/><rect x="54" y="47" width="10" height="1" fill="#62472d"/><rect x="67" y="47" width="10" height="1" fill="#352a20"/><rect x="80" y="47" width="10" height="1" fill="#62472d"/><rect x="93" y="47" width="10" height="1" fill="#352a20"/><rect x="106" y="47" width="10" height="1" fill="#62472d"/><rect x="119" y="47" width="10" height="1" fill="#352a20"/><rect x="132" y="47" width="10" height="1" fill="#62472d"/><rect x="145" y="47" width="10" height="1" fill="#352a20"/><rect x="158" y="47" width="10" height="1" fill="#62472d"/><rect x="171" y="47" width="10" height="1" fill="#352a20"/><rect x="184" y="47" width="10" height="1" fill="#62472d"/><rect x="2" y="50" width="6" height="1" fill="#352a20"/><rect x="15" y="50" width="6" height="1" fill="#62472d"/><rect x="28" y="50" width="6" height="1" fill="#352a20"/><rect x="41" y="50" width="6" height="1" fill="#62472d"/><rect x="54" y="50" width="6" height="1" fill="#352a20"/><rect x="67" y="50" width="6" height="1" fill="#62472d"/><rect x="80" y="50" width="6" height="1" fill="#352a20"/><rect x="93" y="50" width="6" height="1" fill="#62472d"/><rect x="106" y="50" width="6" height="1" fill="#352a20"/><rect x="119" y="50" width="6" height="1" fill="#62472d"/><rect x="132" y="50" width="6" height="1" fill="#352a20"/><rect x="145" y="50" width="6" height="1" fill="#62472d"/><rect x="158" y="50" width="6" height="1" fill="#352a20"/><rect x="171" y="50" width="6" height="1" fill="#62472d"/><rect x="184" y="50" width="6" height="1" fill="#352a20"/><rect x="2" y="53" width="9" height="1" fill="#62472d"/><rect x="15" y="53" width="9" height="1" fill="#352a20"/><rect x="28" y="53" width="9" height="1" fill="#62472d"/><rect x="41" y="53" width="9" height="1" fill="#352a20"/><rect x="54" y="53" width="9" height="1" fill="#62472d"/><rect x="67" y="53" width="9" height="1" fill="#352a20"/><rect x="80" y="53" width="9" height="1" fill="#62472d"/><rect x="93" y="53" width="9" height="1" fill="#352a20"/><rect x="106" y="53" width="9" height="1" fill="#62472d"/><rect x="119" y="53" width="9" height="1" fill="#352a20"/><rect x="132" y="53" width="9" height="1" fill="#62472d"/><rect x="145" y="53" width="9" height="1" fill="#352a20"/><rect x="158" y="53" width="9" height="1" fill="#62472d"/><rect x="171" y="53" width="9" height="1" fill="#352a20"/><rect x="184" y="53" width="9" height="1" fill="#62472d"/><rect x="2" y="56" width="5" height="1" fill="#352a20"/><rect x="15" y="56" width="5" height="1" fill="#62472d"/><rect x="28" y="56" width="5" height="1" fill="#352a20"/><rect x="41" y="56" width="5" height="1" fill="#62472d"/><rect x="54" y="56" width="5" height="1" fill="#352a20"/><rect x="67" y="56" width="5" height="1" fill="#62472d"/><rect x="80" y="56" width="5" height="1" fill="#352a20"/><rect x="93" y="56" width="5" height="1" fill="#62472d"/><rect x="106" y="56" width="5" height="1" fill="#352a20"/><rect x="119" y="56" width="5" height="1" fill="#62472d"/><rect x="132" y="56" width="5" height="1" fill="#352a20"/><rect x="145" y="56" width="5" height="1" fill="#62472d"/><rect x="158" y="56" width="5" height="1" fill="#352a20"/><rect x="171" y="56" width="5" height="1" fill="#62472d"/><rect x="184" y="56" width="5" height="1" fill="#352a20"/><rect x="2" y="59" width="8" height="1" fill="#62472d"/><rect x="15" y="59" width="8" height="1" fill="#352a20"/><rect x="28" y="59" width="8" height="1" fill="#62472d"/><rect x="41" y="59" width="8" height="1" fill="#352a20"/><rect x="54" y="59" width="8" height="1" fill="#62472d"/><rect x="67" y="59" width="8" height="1" fill="#352a20"/><rect x="80" y="59" width="8" height="1" fill="#62472d"/><rect x="93" y="59" width="8" height="1" fill="#352a20"/><rect x="106" y="59" width="8" height="1" fill="#62472d"/><rect x="119" y="59" width="8" height="1" fill="#352a20"/><rect x="132" y="59" width="8" height="1" fill="#62472d"/><rect x="145" y="59" width="8" height="1" fill="#352a20"/><rect x="158" y="59" width="8" height="1" fill="#62472d"/><rect x="171" y="59" width="8" height="1" fill="#352a20"/><rect x="184" y="59" width="8" height="1" fill="#62472d"/><rect x="0" y="0" width="190" height="1" fill="#ffe099"/><rect x="0" y="0" width="1" height="60" fill="#957244"/><rect x="189" y="0" width="1" height="60" fill="#171712"/><rect x="4" y="3" width="89" height="26" fill="#181611"/><rect x="4" y="3" width="89" height="1" fill="#f6d07b"/><rect x="4" y="3" width="1" height="26" fill="#d9ae5b"/><rect x="5" y="4" width="87" height="24" fill="#4b3725"/><rect x="6" y="5" width="85" height="22" fill="#121b20"/><rect x="6" y="5" width="85" height="1" fill="#263237"/><rect x="5" y="27" width="87" height="1" fill="#2d241c"/><rect x="97" y="3" width="89" height="26" fill="#181611"/><rect x="97" y="3" width="89" height="1" fill="#f6d07b"/><rect x="97" y="3" width="1" height="26" fill="#d9ae5b"/><rect x="98" y="4" width="87" height="24" fill="#4b3725"/><rect x="99" y="5" width="85" height="22" fill="#121b20"/><rect x="99" y="5" width="85" height="1" fill="#263237"/><rect x="98" y="27" width="87" height="1" fill="#2d241c"/><g transform="translate(8 9)"><polygon points="0,2 2,0 4,0 6,2 8,0 10,0 12,2 12,6 6,12 0,6" fill="#681f28"/><polygon points="1,2 2,1 4,1 6,3 8,1 10,1 11,2 11,5 6,10 1,5" fill="#ec364c"/><rect x="2" y="2" width="2" height="3" fill="#ff8c95"/><rect x="8" y="2" width="2" height="1" fill="#ff6575"/></g><g transform="translate(101 8)"><polygon points="5,0 10,5 10,11 5,15 0,11 0,5" fill="#074854"/><polygon points="5,1 9,5 9,10 5,13 1,10 1,5" fill="#12bed7"/><polygon points="5,1 5,13 2,9 2,5" fill="#78eeef"/><polygon points="6,3 8,5 8,9 6,11" fill="#0086b9"/><rect x="4" y="3" width="1" height="7" fill="#c0ffff"/></g><rect x="24" y="20" width="65" height="5" fill="#080c0f"/><rect x="25" y="21" width="63" height="3" fill="#471c26"/><rect x="116" y="20" width="65" height="5" fill="#080c0f"/><rect x="117" y="21" width="63" height="3" fill="#073e4b"/><rect x="4" y="30" width="182" height="6" fill="#17191a"/><rect x="4" y="30" width="182" height="1" fill="#806944"/><rect x="5" y="32" width="180" height="2" fill="#183123"/><rect x="5" y="35" width="180" height="1" fill="#392d21"/><rect x="4" y="37" width="60" height="23" fill="#181611"/><rect x="4" y="37" width="60" height="1" fill="#f6d07b"/><rect x="4" y="37" width="1" height="23" fill="#d9ae5b"/><rect x="5" y="38" width="58" height="21" fill="#4b3725"/><rect x="6" y="39" width="56" height="19" fill="#121b20"/><rect x="6" y="39" width="56" height="1" fill="#263237"/><rect x="5" y="58" width="58" height="1" fill="#2d241c"/><rect x="7" y="41" width="13" height="15" fill="#080e13"/><rect x="8" y="42" width="11" height="13" fill="#203239"/><polygon points="15,44 18,44 17,51 12,53 10,52 15,48" fill="#b58a4e"/><polygon points="9,43 15,46 13,47 8,45" fill="#d5faff"/><polygon points="8,47 14,48 12,50 9,49" fill="#81b4c2"/><rect x="23" y="40" width="1" height="1" fill="#eee4cb"/><rect x="25" y="40" width="1" height="1" fill="#eee4cb"/><rect x="23" y="41" width="1" height="1" fill="#eee4cb"/><rect x="24" y="41" width="1" height="1" fill="#eee4cb"/><rect x="25" y="41" width="1" height="1" fill="#eee4cb"/><rect x="23" y="42" width="1" height="1" fill="#eee4cb"/><rect x="24" y="42" width="1" height="1" fill="#eee4cb"/><rect x="25" y="42" width="1" height="1" fill="#eee4cb"/><rect x="23" y="43" width="1" height="1" fill="#eee4cb"/><rect x="25" y="43" width="1" height="1" fill="#eee4cb"/><rect x="23" y="44" width="1" height="1" fill="#eee4cb"/><rect x="25" y="44" width="1" height="1" fill="#eee4cb"/><rect x="27" y="40" width="1" height="1" fill="#eee4cb"/><rect x="28" y="40" width="1" height="1" fill="#eee4cb"/><rect x="29" y="40" width="1" height="1" fill="#eee4cb"/><rect x="27" y="41" width="1" height="1" fill="#eee4cb"/><rect x="29" y="41" width="1" height="1" fill="#eee4cb"/><rect x="27" y="42" width="1" height="1" fill="#eee4cb"/><rect x="29" y="42" width="1" height="1" fill="#eee4cb"/><rect x="27" y="43" width="1" height="1" fill="#eee4cb"/><rect x="29" y="43" width="1" height="1" fill="#eee4cb"/><rect x="27" y="44" width="1" height="1" fill="#eee4cb"/><rect x="28" y="44" width="1" height="1" fill="#eee4cb"/><rect x="29" y="44" width="1" height="1" fill="#eee4cb"/><rect x="31" y="40" width="1" height="1" fill="#eee4cb"/><rect x="32" y="40" width="1" height="1" fill="#eee4cb"/><rect x="31" y="41" width="1" height="1" fill="#eee4cb"/><rect x="33" y="41" width="1" height="1" fill="#eee4cb"/><rect x="31" y="42" width="1" height="1" fill="#eee4cb"/><rect x="32" y="42" width="1" height="1" fill="#eee4cb"/><rect x="31" y="43" width="1" height="1" fill="#eee4cb"/><rect x="33" y="43" width="1" height="1" fill="#eee4cb"/><rect x="31" y="44" width="1" height="1" fill="#eee4cb"/><rect x="32" y="44" width="1" height="1" fill="#eee4cb"/><rect x="35" y="40" width="1" height="1" fill="#eee4cb"/><rect x="36" y="40" width="1" height="1" fill="#eee4cb"/><rect x="37" y="40" width="1" height="1" fill="#eee4cb"/><rect x="36" y="41" width="1" height="1" fill="#eee4cb"/><rect x="36" y="42" width="1" height="1" fill="#eee4cb"/><rect x="36" y="43" width="1" height="1" fill="#eee4cb"/><rect x="35" y="44" width="1" height="1" fill="#eee4cb"/><rect x="36" y="44" width="1" height="1" fill="#eee4cb"/><rect x="37" y="44" width="1" height="1" fill="#eee4cb"/><rect x="39" y="40" width="1" height="1" fill="#eee4cb"/><rect x="39" y="41" width="1" height="1" fill="#eee4cb"/><rect x="39" y="42" width="1" height="1" fill="#eee4cb"/><rect x="39" y="43" width="1" height="1" fill="#eee4cb"/><rect x="39" y="44" width="1" height="1" fill="#eee4cb"/><rect x="40" y="44" width="1" height="1" fill="#eee4cb"/><rect x="41" y="44" width="1" height="1" fill="#eee4cb"/><rect x="43" y="40" width="1" height="1" fill="#eee4cb"/><rect x="44" y="40" width="1" height="1" fill="#eee4cb"/><rect x="45" y="40" width="1" height="1" fill="#eee4cb"/><rect x="44" y="41" width="1" height="1" fill="#eee4cb"/><rect x="44" y="42" width="1" height="1" fill="#eee4cb"/><rect x="44" y="43" width="1" height="1" fill="#eee4cb"/><rect x="43" y="44" width="1" height="1" fill="#eee4cb"/><rect x="44" y="44" width="1" height="1" fill="#eee4cb"/><rect x="45" y="44" width="1" height="1" fill="#eee4cb"/><rect x="47" y="40" width="1" height="1" fill="#eee4cb"/><rect x="48" y="40" width="1" height="1" fill="#eee4cb"/><rect x="49" y="40" width="1" height="1" fill="#eee4cb"/><rect x="48" y="41" width="1" height="1" fill="#eee4cb"/><rect x="48" y="42" width="1" height="1" fill="#eee4cb"/><rect x="48" y="43" width="1" height="1" fill="#eee4cb"/><rect x="48" y="44" width="1" height="1" fill="#eee4cb"/><rect x="51" y="40" width="1" height="1" fill="#eee4cb"/><rect x="53" y="40" width="1" height="1" fill="#eee4cb"/><rect x="51" y="41" width="1" height="1" fill="#eee4cb"/><rect x="53" y="41" width="1" height="1" fill="#eee4cb"/><rect x="52" y="42" width="1" height="1" fill="#eee4cb"/><rect x="52" y="43" width="1" height="1" fill="#eee4cb"/><rect x="52" y="44" width="1" height="1" fill="#eee4cb"/><rect x="23" y="50" width="1" height="1" fill="#add9e4"/><rect x="24" y="50" width="1" height="1" fill="#add9e4"/><rect x="25" y="50" width="1" height="1" fill="#add9e4"/><rect x="23" y="51" width="1" height="1" fill="#add9e4"/><rect x="23" y="52" width="1" height="1" fill="#add9e4"/><rect x="24" y="52" width="1" height="1" fill="#add9e4"/><rect x="23" y="53" width="1" height="1" fill="#add9e4"/><rect x="23" y="54" width="1" height="1" fill="#add9e4"/><rect x="32" y="53" width="1" height="1" fill="#add9e4"/><rect x="31" y="54" width="1" height="1" fill="#add9e4"/><rect x="39" y="50" width="1" height="1" fill="#add9e4"/><rect x="40" y="50" width="1" height="1" fill="#add9e4"/><rect x="41" y="50" width="1" height="1" fill="#add9e4"/><rect x="39" y="51" width="1" height="1" fill="#add9e4"/><rect x="39" y="52" width="1" height="1" fill="#add9e4"/><rect x="40" y="52" width="1" height="1" fill="#add9e4"/><rect x="39" y="53" width="1" height="1" fill="#add9e4"/><rect x="39" y="54" width="1" height="1" fill="#add9e4"/><rect x="65" y="37" width="60" height="23" fill="#181611"/><rect x="65" y="37" width="60" height="1" fill="#f6d07b"/><rect x="65" y="37" width="1" height="23" fill="#d9ae5b"/><rect x="66" y="38" width="58" height="21" fill="#4b3725"/><rect x="67" y="39" width="56" height="19" fill="#121b20"/><rect x="67" y="39" width="56" height="1" fill="#263237"/><rect x="66" y="58" width="58" height="1" fill="#2d241c"/><rect x="68" y="41" width="13" height="15" fill="#080e13"/><rect x="69" y="42" width="11" height="13" fill="#203239"/><polygon points="76,43 79,45 75,49 76,49 70,54 73,48 71,48" fill="#009ddd"/><polygon points="76,44 77,45 73,50 74,47" fill="#b5ffff"/><rect x="84" y="40" width="1" height="1" fill="#eee4cb"/><rect x="85" y="40" width="1" height="1" fill="#eee4cb"/><rect x="86" y="40" width="1" height="1" fill="#eee4cb"/><rect x="84" y="41" width="1" height="1" fill="#eee4cb"/><rect x="84" y="42" width="1" height="1" fill="#eee4cb"/><rect x="85" y="42" width="1" height="1" fill="#eee4cb"/><rect x="86" y="42" width="1" height="1" fill="#eee4cb"/><rect x="86" y="43" width="1" height="1" fill="#eee4cb"/><rect x="84" y="44" width="1" height="1" fill="#eee4cb"/><rect x="85" y="44" width="1" height="1" fill="#eee4cb"/><rect x="86" y="44" width="1" height="1" fill="#eee4cb"/><rect x="88" y="40" width="1" height="1" fill="#eee4cb"/><rect x="89" y="40" width="1" height="1" fill="#eee4cb"/><rect x="90" y="40" width="1" height="1" fill="#eee4cb"/><rect x="89" y="41" width="1" height="1" fill="#eee4cb"/><rect x="89" y="42" width="1" height="1" fill="#eee4cb"/><rect x="89" y="43" width="1" height="1" fill="#eee4cb"/><rect x="88" y="44" width="1" height="1" fill="#eee4cb"/><rect x="89" y="44" width="1" height="1" fill="#eee4cb"/><rect x="90" y="44" width="1" height="1" fill="#eee4cb"/><rect x="92" y="40" width="1" height="1" fill="#eee4cb"/><rect x="93" y="40" width="1" height="1" fill="#eee4cb"/><rect x="94" y="40" width="1" height="1" fill="#eee4cb"/><rect x="92" y="41" width="1" height="1" fill="#eee4cb"/><rect x="92" y="42" width="1" height="1" fill="#eee4cb"/><rect x="94" y="42" width="1" height="1" fill="#eee4cb"/><rect x="92" y="43" width="1" height="1" fill="#eee4cb"/><rect x="94" y="43" width="1" height="1" fill="#eee4cb"/><rect x="92" y="44" width="1" height="1" fill="#eee4cb"/><rect x="93" y="44" width="1" height="1" fill="#eee4cb"/><rect x="94" y="44" width="1" height="1" fill="#eee4cb"/><rect x="96" y="40" width="1" height="1" fill="#eee4cb"/><rect x="98" y="40" width="1" height="1" fill="#eee4cb"/><rect x="96" y="41" width="1" height="1" fill="#eee4cb"/><rect x="97" y="41" width="1" height="1" fill="#eee4cb"/><rect x="98" y="41" width="1" height="1" fill="#eee4cb"/><rect x="96" y="42" width="1" height="1" fill="#eee4cb"/><rect x="97" y="42" width="1" height="1" fill="#eee4cb"/><rect x="98" y="42" width="1" height="1" fill="#eee4cb"/><rect x="96" y="43" width="1" height="1" fill="#eee4cb"/><rect x="97" y="43" width="1" height="1" fill="#eee4cb"/><rect x="98" y="43" width="1" height="1" fill="#eee4cb"/><rect x="96" y="44" width="1" height="1" fill="#eee4cb"/><rect x="98" y="44" width="1" height="1" fill="#eee4cb"/><rect x="101" y="40" width="1" height="1" fill="#eee4cb"/><rect x="100" y="41" width="1" height="1" fill="#eee4cb"/><rect x="102" y="41" width="1" height="1" fill="#eee4cb"/><rect x="100" y="42" width="1" height="1" fill="#eee4cb"/><rect x="101" y="42" width="1" height="1" fill="#eee4cb"/><rect x="102" y="42" width="1" height="1" fill="#eee4cb"/><rect x="100" y="43" width="1" height="1" fill="#eee4cb"/><rect x="102" y="43" width="1" height="1" fill="#eee4cb"/><rect x="100" y="44" width="1" height="1" fill="#eee4cb"/><rect x="102" y="44" width="1" height="1" fill="#eee4cb"/><rect x="104" y="40" width="1" height="1" fill="#eee4cb"/><rect x="105" y="40" width="1" height="1" fill="#eee4cb"/><rect x="106" y="40" width="1" height="1" fill="#eee4cb"/><rect x="105" y="41" width="1" height="1" fill="#eee4cb"/><rect x="105" y="42" width="1" height="1" fill="#eee4cb"/><rect x="105" y="43" width="1" height="1" fill="#eee4cb"/><rect x="105" y="44" width="1" height="1" fill="#eee4cb"/><rect x="108" y="40" width="1" height="1" fill="#eee4cb"/><rect x="110" y="40" width="1" height="1" fill="#eee4cb"/><rect x="108" y="41" width="1" height="1" fill="#eee4cb"/><rect x="110" y="41" width="1" height="1" fill="#eee4cb"/><rect x="108" y="42" width="1" height="1" fill="#eee4cb"/><rect x="110" y="42" width="1" height="1" fill="#eee4cb"/><rect x="108" y="43" width="1" height="1" fill="#eee4cb"/><rect x="110" y="43" width="1" height="1" fill="#eee4cb"/><rect x="108" y="44" width="1" height="1" fill="#eee4cb"/><rect x="109" y="44" width="1" height="1" fill="#eee4cb"/><rect x="110" y="44" width="1" height="1" fill="#eee4cb"/><rect x="112" y="40" width="1" height="1" fill="#eee4cb"/><rect x="113" y="40" width="1" height="1" fill="#eee4cb"/><rect x="112" y="41" width="1" height="1" fill="#eee4cb"/><rect x="114" y="41" width="1" height="1" fill="#eee4cb"/><rect x="112" y="42" width="1" height="1" fill="#eee4cb"/><rect x="113" y="42" width="1" height="1" fill="#eee4cb"/><rect x="112" y="43" width="1" height="1" fill="#eee4cb"/><rect x="114" y="43" width="1" height="1" fill="#eee4cb"/><rect x="112" y="44" width="1" height="1" fill="#eee4cb"/><rect x="114" y="44" width="1" height="1" fill="#eee4cb"/><rect x="116" y="40" width="1" height="1" fill="#eee4cb"/><rect x="117" y="40" width="1" height="1" fill="#eee4cb"/><rect x="118" y="40" width="1" height="1" fill="#eee4cb"/><rect x="116" y="41" width="1" height="1" fill="#eee4cb"/><rect x="116" y="42" width="1" height="1" fill="#eee4cb"/><rect x="117" y="42" width="1" height="1" fill="#eee4cb"/><rect x="116" y="43" width="1" height="1" fill="#eee4cb"/><rect x="116" y="44" width="1" height="1" fill="#eee4cb"/><rect x="117" y="44" width="1" height="1" fill="#eee4cb"/><rect x="118" y="44" width="1" height="1" fill="#eee4cb"/><rect x="84" y="50" width="1" height="1" fill="#add9e4"/><rect x="85" y="50" width="1" height="1" fill="#add9e4"/><rect x="86" y="50" width="1" height="1" fill="#add9e4"/><rect x="84" y="51" width="1" height="1" fill="#add9e4"/><rect x="84" y="52" width="1" height="1" fill="#add9e4"/><rect x="85" y="52" width="1" height="1" fill="#add9e4"/><rect x="84" y="53" width="1" height="1" fill="#add9e4"/><rect x="84" y="54" width="1" height="1" fill="#add9e4"/><rect x="93" y="51" width="1" height="1" fill="#add9e4"/><rect x="92" y="52" width="1" height="1" fill="#add9e4"/><rect x="93" y="52" width="1" height="1" fill="#add9e4"/><rect x="94" y="52" width="1" height="1" fill="#add9e4"/><rect x="93" y="53" width="1" height="1" fill="#add9e4"/><rect x="100" y="50" width="1" height="1" fill="#add9e4"/><rect x="100" y="51" width="1" height="1" fill="#add9e4"/><rect x="100" y="52" width="1" height="1" fill="#add9e4"/><rect x="100" y="53" width="1" height="1" fill="#add9e4"/><rect x="100" y="54" width="1" height="1" fill="#add9e4"/><rect x="101" y="54" width="1" height="1" fill="#add9e4"/><rect x="102" y="54" width="1" height="1" fill="#add9e4"/><rect x="104" y="50" width="1" height="1" fill="#add9e4"/><rect x="106" y="50" width="1" height="1" fill="#add9e4"/><rect x="104" y="51" width="1" height="1" fill="#add9e4"/><rect x="105" y="51" width="1" height="1" fill="#add9e4"/><rect x="106" y="51" width="1" height="1" fill="#add9e4"/><rect x="104" y="52" width="1" height="1" fill="#add9e4"/><rect x="105" y="52" width="1" height="1" fill="#add9e4"/><rect x="106" y="52" width="1" height="1" fill="#add9e4"/><rect x="104" y="53" width="1" height="1" fill="#add9e4"/><rect x="106" y="53" width="1" height="1" fill="#add9e4"/><rect x="104" y="54" width="1" height="1" fill="#add9e4"/><rect x="106" y="54" width="1" height="1" fill="#add9e4"/><rect x="108" y="50" width="1" height="1" fill="#add9e4"/><rect x="109" y="50" width="1" height="1" fill="#add9e4"/><rect x="108" y="51" width="1" height="1" fill="#add9e4"/><rect x="110" y="51" width="1" height="1" fill="#add9e4"/><rect x="108" y="52" width="1" height="1" fill="#add9e4"/><rect x="109" y="52" width="1" height="1" fill="#add9e4"/><rect x="108" y="53" width="1" height="1" fill="#add9e4"/><rect x="110" y="53" width="1" height="1" fill="#add9e4"/><rect x="108" y="54" width="1" height="1" fill="#add9e4"/><rect x="109" y="54" width="1" height="1" fill="#add9e4"/><rect x="126" y="37" width="60" height="23" fill="#181611"/><rect x="126" y="37" width="60" height="1" fill="#f6d07b"/><rect x="126" y="37" width="1" height="23" fill="#d9ae5b"/><rect x="127" y="38" width="58" height="21" fill="#4b3725"/><rect x="128" y="39" width="56" height="19" fill="#121b20"/><rect x="128" y="39" width="56" height="1" fill="#263237"/><rect x="127" y="58" width="58" height="1" fill="#2d241c"/><rect x="129" y="41" width="13" height="15" fill="#080e13"/><rect x="130" y="42" width="11" height="13" fill="#203239"/><polygon points="135,43 140,48 135,53 130,48" fill="#047a95"/><polygon points="135,44 139,48 135,52 131,48" fill="#3dc9e4"/><polygon points="135,46 137,48 135,50 133,48" fill="#091b24"/><rect x="135" y="42" width="1" height="13" fill="#a7ffff"/><rect x="130" y="48" width="11" height="1" fill="#a7ffff"/><rect x="145" y="40" width="1" height="1" fill="#eee4cb"/><rect x="147" y="40" width="1" height="1" fill="#eee4cb"/><rect x="145" y="41" width="1" height="1" fill="#eee4cb"/><rect x="147" y="41" width="1" height="1" fill="#eee4cb"/><rect x="145" y="42" width="1" height="1" fill="#eee4cb"/><rect x="147" y="42" width="1" height="1" fill="#eee4cb"/><rect x="145" y="43" width="1" height="1" fill="#eee4cb"/><rect x="147" y="43" width="1" height="1" fill="#eee4cb"/><rect x="145" y="44" width="1" height="1" fill="#eee4cb"/><rect x="146" y="44" width="1" height="1" fill="#eee4cb"/><rect x="147" y="44" width="1" height="1" fill="#eee4cb"/><rect x="149" y="40" width="1" height="1" fill="#eee4cb"/><rect x="150" y="40" width="1" height="1" fill="#eee4cb"/><rect x="151" y="40" width="1" height="1" fill="#eee4cb"/><rect x="150" y="41" width="1" height="1" fill="#eee4cb"/><rect x="150" y="42" width="1" height="1" fill="#eee4cb"/><rect x="150" y="43" width="1" height="1" fill="#eee4cb"/><rect x="150" y="44" width="1" height="1" fill="#eee4cb"/><rect x="153" y="40" width="1" height="1" fill="#eee4cb"/><rect x="154" y="40" width="1" height="1" fill="#eee4cb"/><rect x="155" y="40" width="1" height="1" fill="#eee4cb"/><rect x="154" y="41" width="1" height="1" fill="#eee4cb"/><rect x="154" y="42" width="1" height="1" fill="#eee4cb"/><rect x="154" y="43" width="1" height="1" fill="#eee4cb"/><rect x="153" y="44" width="1" height="1" fill="#eee4cb"/><rect x="154" y="44" width="1" height="1" fill="#eee4cb"/><rect x="155" y="44" width="1" height="1" fill="#eee4cb"/><rect x="157" y="40" width="1" height="1" fill="#eee4cb"/><rect x="157" y="41" width="1" height="1" fill="#eee4cb"/><rect x="157" y="42" width="1" height="1" fill="#eee4cb"/><rect x="157" y="43" width="1" height="1" fill="#eee4cb"/><rect x="157" y="44" width="1" height="1" fill="#eee4cb"/><rect x="158" y="44" width="1" height="1" fill="#eee4cb"/><rect x="159" y="44" width="1" height="1" fill="#eee4cb"/><rect x="161" y="40" width="1" height="1" fill="#eee4cb"/><rect x="162" y="40" width="1" height="1" fill="#eee4cb"/><rect x="163" y="40" width="1" height="1" fill="#eee4cb"/><rect x="162" y="41" width="1" height="1" fill="#eee4cb"/><rect x="162" y="42" width="1" height="1" fill="#eee4cb"/><rect x="162" y="43" width="1" height="1" fill="#eee4cb"/><rect x="161" y="44" width="1" height="1" fill="#eee4cb"/><rect x="162" y="44" width="1" height="1" fill="#eee4cb"/><rect x="163" y="44" width="1" height="1" fill="#eee4cb"/><rect x="165" y="40" width="1" height="1" fill="#eee4cb"/><rect x="166" y="40" width="1" height="1" fill="#eee4cb"/><rect x="167" y="40" width="1" height="1" fill="#eee4cb"/><rect x="166" y="41" width="1" height="1" fill="#eee4cb"/><rect x="166" y="42" width="1" height="1" fill="#eee4cb"/><rect x="166" y="43" width="1" height="1" fill="#eee4cb"/><rect x="166" y="44" width="1" height="1" fill="#eee4cb"/><rect x="169" y="40" width="1" height="1" fill="#eee4cb"/><rect x="171" y="40" width="1" height="1" fill="#eee4cb"/><rect x="169" y="41" width="1" height="1" fill="#eee4cb"/><rect x="171" y="41" width="1" height="1" fill="#eee4cb"/><rect x="170" y="42" width="1" height="1" fill="#eee4cb"/><rect x="170" y="43" width="1" height="1" fill="#eee4cb"/><rect x="170" y="44" width="1" height="1" fill="#eee4cb"/><rect x="145" y="50" width="1" height="1" fill="#add9e4"/><rect x="146" y="50" width="1" height="1" fill="#add9e4"/><rect x="147" y="50" width="1" height="1" fill="#add9e4"/><rect x="145" y="51" width="1" height="1" fill="#add9e4"/><rect x="145" y="52" width="1" height="1" fill="#add9e4"/><rect x="146" y="52" width="1" height="1" fill="#add9e4"/><rect x="145" y="53" width="1" height="1" fill="#add9e4"/><rect x="145" y="54" width="1" height="1" fill="#add9e4"/><rect x="154" y="51" width="1" height="1" fill="#add9e4"/><rect x="153" y="52" width="1" height="1" fill="#add9e4"/><rect x="154" y="52" width="1" height="1" fill="#add9e4"/><rect x="155" y="52" width="1" height="1" fill="#add9e4"/><rect x="154" y="53" width="1" height="1" fill="#add9e4"/><rect x="161" y="50" width="1" height="1" fill="#add9e4"/><rect x="162" y="50" width="1" height="1" fill="#add9e4"/><rect x="161" y="51" width="1" height="1" fill="#add9e4"/><rect x="163" y="51" width="1" height="1" fill="#add9e4"/><rect x="161" y="52" width="1" height="1" fill="#add9e4"/><rect x="162" y="52" width="1" height="1" fill="#add9e4"/><rect x="161" y="53" width="1" height="1" fill="#add9e4"/><rect x="163" y="53" width="1" height="1" fill="#add9e4"/><rect x="161" y="54" width="1" height="1" fill="#add9e4"/><rect x="163" y="54" width="1" height="1" fill="#add9e4"/><rect x="165" y="50" width="1" height="1" fill="#add9e4"/><rect x="167" y="50" width="1" height="1" fill="#add9e4"/><rect x="165" y="51" width="1" height="1" fill="#add9e4"/><rect x="166" y="51" width="1" height="1" fill="#add9e4"/><rect x="167" y="51" width="1" height="1" fill="#add9e4"/><rect x="165" y="52" width="1" height="1" fill="#add9e4"/><rect x="166" y="52" width="1" height="1" fill="#add9e4"/><rect x="167" y="52" width="1" height="1" fill="#add9e4"/><rect x="165" y="53" width="1" height="1" fill="#add9e4"/><rect x="167" y="53" width="1" height="1" fill="#add9e4"/><rect x="165" y="54" width="1" height="1" fill="#add9e4"/><rect x="167" y="54" width="1" height="1" fill="#add9e4"/><rect x="169" y="50" width="1" height="1" fill="#add9e4"/><rect x="170" y="50" width="1" height="1" fill="#add9e4"/><rect x="169" y="51" width="1" height="1" fill="#add9e4"/><rect x="171" y="51" width="1" height="1" fill="#add9e4"/><rect x="169" y="52" width="1" height="1" fill="#add9e4"/><rect x="170" y="52" width="1" height="1" fill="#add9e4"/><rect x="169" y="53" width="1" height="1" fill="#add9e4"/><rect x="171" y="53" width="1" height="1" fill="#add9e4"/><rect x="169" y="54" width="1" height="1" fill="#add9e4"/><rect x="170" y="54" width="1" height="1" fill="#add9e4"/><rect x="1" y="2" width="2" height="2" fill="#f4cb79"/><rect x="1" y="2" width="1" height="1" fill="#ffebac"/><rect x="1" y="56" width="2" height="2" fill="#f4cb79"/><rect x="1" y="56" width="1" height="1" fill="#ffebac"/><rect x="187" y="2" width="2" height="2" fill="#f4cb79"/><rect x="187" y="2" width="1" height="1" fill="#ffebac"/><rect x="187" y="56" width="2" height="2" fill="#f4cb79"/><rect x="187" y="56" width="1" height="1" fill="#ffebac"/></svg>